PathFileType	4	(X/Y/Z)	/Users/niels/Desktop/University/Third Semester/Perception and Action/Exam/Gymnastics Motion Tracking/Code for Gym Tracking/Scripts/Analyzed Data/kraft_bad_id5_2_nmspeed_Sports2D/kraft_bad_id5_2_nmspeed_Sports2D_px_person00.trc
DataRate	CameraRate	NumFrames	NumMarkers	Units	OrigDataRate	OrigDataStartFrame	OrigNumFrames
49.54128440366972	49.54128440366972	12	22	m	49.54128440366972	13	109
Frame#	Time	Hip			RHip			RKnee			RAnkle			RBigToe			RSmallToe			RHeel			LHip			LKnee			LAnkle			LBigToe			LSmallToe			LHeel			Neck			Head			Nose			RShoulder			RElbow			RWrist			LShoulder			LElbow			LWrist		
		X1	Y1	Z1	X2	Y2	Z2	X3	Y3	Z3	X4	Y4	Z4	X5	Y5	Z5	X6	Y6	Z6	X7	Y7	Z7	X8	Y8	Z8	X9	Y9	Z9	X10	Y10	Z10	X11	Y11	Z11	X12	Y12	Z12	X13	Y13	Z13	X14	Y14	Z14	X15	Y15	Z15	X16	Y16	Z16	X17	Y17	Z17	X18	Y18	Z18	X19	Y19	Z19	X20	Y20	Z20	X21	Y21	Z21	X22	Y22	Z22
13	0.2624074074074074	0.22862365319345426	-0.5473713797060851	0.0	0.20820703162935145	-0.5447859981562024	0.0	0.26989718668924784	-0.692206370782416	0.0	0.22771831985509222	-0.835947094916047	0.0	0.27958768241147514	-0.8535237633362918	0.0	0.2642265129549971	-0.8588540836852308	0.0	0.21228028265273324	-0.8526392528623118	0.0	0.2511682311660707	-0.5466009707594421	0.0	0.30416706115037	-0.6857329800659738	0.0	0.1720565091490244	-0.7483416592482509	0.0	0.14820893997355067	-0.7959961541855759	0.0	0.14767417888284015	-0.7905561526211459	0.0	0.14370505394301653	-0.7360799230352943	0.0	0.27434115726001596	-0.36172425316536166	0.0	0.30326805320993183	-0.2718255946560988	0.0	0.3223907053393898	-0.32337142127926255	0.0	0.23580540956715665	-0.37501710517636655	0.0	0.274338841386489	-0.43269408400115955	0.0	0.33654548122774913	-0.4486095407368024	0.0	0.3144933014564819	-0.3772559379232207	0.0	0.40770388193154544	-0.3817970507395846	0.0	0.49143376462652394	-0.36395117783433417	0.0
14	0.2825925925925926	0.24515533433778258	-0.5439032096198555	0.0	0.22348124200954847	-0.5412911053856305	0.0	0.2740812368837812	-0.6927154049604591	0.0	0.22685670044302297	-0.8346451510454613	0.0	0.2767864821445881	-0.8543138246130929	0.0	0.26122741621227247	-0.8591066414306602	0.0	0.21075725599870268	-0.8508882943956698	0.0	0.26909500866651254	-0.543072019834518	0.0	0.3364042572936797	-0.6756811278943549	0.0	0.1993737664391614	-0.7398584828935182	0.0	0.1871794270602501	-0.7915684871085148	0.0	0.18634936618231068	-0.7863571519030871	0.0	0.17885211459814335	-0.7323200887154726	0.0	0.28998066092239266	-0.35852778461834717	0.0	0.32254583952498705	-0.26860334887303705	0.0	0.3401694471445674	-0.32004096259714004	0.0	0.25444078823331173	-0.3706042662012925	0.0	0.30311861909684473	-0.4188485013273108	0.0	0.37351562526217685	-0.42344818153378705	0.0	0.32831539794604103	-0.3713535559685282	0.0	0.4217894222174297	-0.3686149978701676	0.0	0.5031868211071018	-0.34256945674042855	0.0
15	0.3027777777777778	0.2619729373721268	-0.5393919430079062	0.0	0.23914940192870304	-0.5368874030267431	0.0	0.278716741314186	-0.691598800209544	0.0	0.2267592603868228	-0.8317866595648526	0.0	0.2746339066155613	-0.8542794212174354	0.0	0.2588358584687157	-0.8585079910120785	0.0	0.2099805129759005	-0.8475365986686593	0.0	0.28712167606726174	-0.5386450492129493	0.0	0.36693791534980114	-0.6642007779624307	0.0	0.23029974641302361	-0.7330866019938568	0.0	0.22846101883122655	-0.7873986674942356	0.0	0.2276556031308793	-0.7819247414287218	0.0	0.21422914996196504	-0.7299919089955802	0.0	0.3056096066099518	-0.3541846296564542	0.0	0.3425965029016912	-0.2645177555116342	0.0	0.3583597202435	-0.3157885863249297	0.0	0.27356790585945634	-0.36481851318338127	0.0	0.33144354373633006	-0.4034127234117526	0.0	0.40792305415827596	-0.39723074993467156	0.0	0.34121055240018144	-0.36457855165190345	0.0	0.4338015381114052	-0.35576902876105954	0.0	0.5121349537078819	-0.322895355627869	0.0
16	0.322962962962963	0.27916619437955487	-0.5338407009184226	0.0	0.25535813346490993	-0.5315384733603622	0.0	0.2843496511222178	-0.6888363592966147	0.0	0.22794444816660578	-0.8273206927449466	0.0	0.27358938467675586	-0.853312010440235	0.0	0.25744705603945506	-0.8569284453232583	0.0	0.2104771743759511	-0.8424758898570683	0.0	0.30534635575138025	-0.5332863935185165	0.0	0.3955615187687677	-0.6517550488096504	0.0	0.26347877831179123	-0.727926936810751	0.0	0.27051116288153176	-0.7836093140943619	0.0	0.27002831813168204	-0.7775545215810297	0.0	0.24939860856826607	-0.7288991494786766	0.0	0.32134111691566464	-0.34874181853652303	0.0	0.36338371686983073	-0.2596601001588907	0.0	0.3770090018481672	-0.3106392849662811	0.0	0.2932409948073371	-0.35774330648392333	0.0	0.35920592532489753	-0.38696663255210334	0.0	0.43968156828679494	-0.3709386525391347	0.0	0.3532731462584686	-0.35705932316173716	0.0	0.443586778767758	-0.3435108851224863	0.0	0.5182161283545762	-0.3053059359467992	0.0
17	0.3431481481481482	0.296776519309986	-0.527340418740849	0.0	0.2721754106821659	-0.5252835113649504	0.0	0.2915054362898709	-0.6845370415196704	0.0	0.23087499214391996	-0.8213303808926377	0.0	0.2740511372645001	-0.8513564885441736	0.0	0.25744285453633137	-0.8542900355839522	0.0	0.2127205568048832	-0.8357606845933921	0.0	0.32383708339174017	-0.5270448147607897	0.0	0.42226695672256925	-0.6388726342271736	0.0	0.2977765081232268	-0.7241444077498003	0.0	0.3121660644245033	-0.7801418020555438	0.0	0.31224109454413745	-0.7733887987766382	0.0	0.2840378122493242	-0.7287774593899157	0.0	0.33732737261337226	-0.34236534299783594	0.0	0.3848395588467486	-0.2542027626243936	0.0	0.39614820914000864	-0.3046998091625687	0.0	0.3134949965637232	-0.3496026260941235	0.0	0.38639777398377584	-0.37011759454341775	0.0	0.4690160989140908	-0.34543978981382045	0.0	0.3647375307070597	-0.34895249705264236	0.0	0.4510042396295925	-0.33202536623208545	0.0	0.5212889790757365	-0.28999598410351035	0.0
18	0.3633333333333334	0.31472001852631964	-0.5201021119258654	0.0	0.28952840253339357	-0.5182772718581675	0.0	0.3006053378411037	-0.6789614513763546	0.0	0.23593677398185195	-0.8140796918820533	0.0	0.2764161149295433	-0.8484389136400874	0.0	0.25926020184384685	-0.85060958462915	0.0	0.2171115769539856	-0.8276734974935113	0.0	0.3425339454418143	-0.5200956560126558	0.0	0.4470826926339422	-0.6261557752984346	0.0	0.33217299480976165	-0.7214191350509219	0.0	0.3525193776475133	-0.7768254131282302	0.0	0.3532710523055482	-0.7694436744064034	0.0	0.31777376079421266	-0.7293228996575561	0.0	0.3536683244449683	-0.33534727773489065	0.0	0.4067903918681267	-0.24840872215133322	0.0	0.41570872862029684	-0.29819786894182937	0.0	0.3342560573862414	-0.3407686954119534	0.0	0.4129631471978345	-0.35352943077928134	0.0	0.4962431576810695	-0.3215628166192321	0.0	0.3759182210421909	-0.3404752823935705	0.0	0.4559448800891171	-0.3214520375695864	0.0	0.5211745935361902	-0.2770226398805567	0.0
19	0.3835185185185186	0.3328067081817005	-0.512447050398159	0.0	0.30722822309361997	-0.5107962598629159	0.0	0.3119077768457062	-0.6724954756529606	0.0	0.24344522172494826	-0.8060058198943856	0.0	0.28111613922877027	-0.8446707230543986	0.0	0.26339747602683833	-0.8460235733311111	0.0	0.22398465510895274	-0.8187106330665486	0.0	0.3612626742483682	-0.5127325528947312	0.0	0.4700124081097312	-0.6142238413574274	0.0	0.36573832413572177	-0.71946005190663	0.0	0.3908053505484383	-0.7735556324407924	0.0	0.39223186849948355	-0.7657338389926116	0.0	0.3501637730420808	-0.7302602164631443	0.0	0.3703962027231144	-0.32807066265595397	0.0	0.428973206367179	-0.24261419884757504	0.0	0.43552887761686315	-0.2914830016948356	0.0	0.35534446336756026	-0.3317156295677548	0.0	0.43874512467739885	-0.33789456359217274	0.0	0.5216448556701238	-0.30008109254972254	0.0	0.38717666970855663	-0.33192185662500007	0.0	0.4584610141930075	-0.31187584068787294	0.0	0.517806420439212	-0.2663259647076294	0.0
20	0.4037037037037038	0.35086717234627257	-0.5047351652169124	0.0	0.3250954725092755	-0.5031804655911518	0.0	0.32550710346294826	-0.6655715701254413	0.0	0.25367572324216897	-0.7976426346585986	0.0	0.28863078357901584	-0.8402356464913766	0.0	0.2703915309093868	-0.8407857909991889	0.0	0.23363756978401373	-0.8094861801405763	0.0	0.37986585332113176	-0.5052963308767822	0.0	0.4911261838420629	-0.6035889800154173	0.0	0.39780138669388265	-0.7180727046459154	0.0	0.42653093165925016	-0.7703753071510656	0.0	0.4285444208572502	-0.7623313617544036	0.0	0.3808858271015808	-0.7313868553678085	0.0	0.3875633725042919	-0.3209247552471737	0.0	0.4511689069021008	-0.23717191357086578	0.0	0.45547411069494953	-0.28496222512934727	0.0	0.37659240065928284	-0.3229126473009886	0.0	0.46360329267487244	-0.32380151516461475	0.0	0.545530861040327	-0.2815594046219015	0.0	0.3989304061745955	-0.323618546595824	0.0	0.45896828374655196	-0.3032980035581703	0.0	0.5115031958860086	-0.25772176296359556	0.0
21	0.4238888888888889	0.3688393946668991	-0.4972952704737805	0.0	0.343046790514629	-0.49576081438474245	0.0	0.34136510975166373	-0.6585915735853731	0.0	0.2668728251065994	-0.7895291009197853	0.0	0.29945732817182696	-0.8353649715818606	0.0	0.28077165268785875	-0.8352258943677972	0.0	0.24634232527475866	-0.8006297978472592	0.0	0.3982901965996717	-0.4981034626611998	0.0	0.5106331454170505	-0.5945721501064857	0.0	0.4280772448795557	-0.7171576252955666	0.0	0.4596274265626872	-0.7674088860151616	0.0	0.4620875754015869	-0.7593346032973214	0.0	0.40988870333423516	-0.7325943771472473	0.0	0.4053088540209241	-0.31423733724145003	0.0	0.4733101792231766	-0.23239819437017592	0.0	0.4755277957569681	-0.27902924998085743	0.0	0.3979398097492152	-0.31474533214745576	0.0	0.48754031991916164	-0.3116326318926821	0.0	0.5683151569962298	-0.26625304721034376	0.0	0.41162086504685935	-0.3158614767120615	0.0	0.4584071071733685	-0.29565937334464604	0.0	0.5033138234452653	-0.25094113495652465	0.0
22	0.4440740740740741	0.38672289032614193	-0.4904177714716438	0.0	0.36104710834136045	-0.48884015651975476	0.0	0.35929994107741015	-0.6519061657262792	0.0	0.2831917266130092	-0.7821658063021776	0.0	0.31400588132298785	-0.8303255905268174	0.0	0.29495313552501956	-0.8297020000828876	0.0	0.2622833817049291	-0.7927425839320417	0.0	0.41653274417043135	-0.4914312822723728	0.0	0.5288161439561638	-0.5873185060746564	0.0	0.4565759953368296	-0.7166888851915916	0.0	0.49035252126621026	-0.7647647913119832	0.0	0.4930940825014851	-0.7568303532802116	0.0	0.4373255233938351	-0.7338824716587992	0.0	0.42380152750908334	-0.3082720379134393	0.0	0.49545157095095393	-0.22856109474830946	0.0	0.4957439714610805	-0.2740419956861726	0.0	0.4193950877802996	-0.30751906920276106	0.0	0.5106879563668317	-0.30158165388490915	0.0	0.5904490573136227	-0.2541617150328728	0.0	0.42559273823011706	-0.30890142497360934	0.0	0.4582157193426704	-0.2889184577772254	0.0	0.4951421392375782	-0.24571186663520886	0.0
23	0.4642592592592593	0.4044884739884598	-0.48437985711449527	0.0	0.37901778281768694	-0.48271361119052103	0.0	0.37896094743915953	-0.6458330627313003	0.0	0.3026187686148961	-0.7760040994501524	0.0	0.3324718253628663	-0.8254257712578288	0.0	0.3131135164107564	-0.8245812107760684	0.0	0.28147152684434457	-0.7863743040815633	0.0	0.43454468097232135	-0.485539029623522	0.0	0.545913599348488	-0.5818670897702983	0.0	0.4834227780408909	-0.7166988353343978	0.0	0.5190521160553339	-0.7625048843961324	0.0	0.5219167329726067	-0.7548850688024318	0.0	0.4633954425351952	-0.7353410612225041	0.0	0.4431261280232742	-0.303251672220655	0.0	0.5176636721942034	-0.22589535600124336	0.0	0.5161449780342329	-0.27031675745382966	0.0	0.4409231659148037	-0.30149172915033173	0.0	0.5331878126050474	-0.29373838420143034	0.0	0.6122707743630721	-0.2451615554773219	0.0	0.44097874285736116	-0.30295894850529986	0.0	0.45993392709868874	-0.2831267966795757	0.0	0.4892189180034361	-0.24182569454864106	0.0
24	0.4844444444444445	0.42208828306336316	-0.47943931269964707	0.0	0.3968586864484338	-0.47765941007883794	0.0	0.3999191911074472	-0.6406499084946322	0.0	0.3249808715138349	-0.771406816036148	0.0	0.35480097751976913	-0.8209980094657781	0.0	0.3351762819687009	-0.8202132393570445	0.0	0.3037544651414178	-0.7819513763381462	0.0	0.4522445535329698	-0.4806626932026122	0.0	0.5621098702454245	-0.5781934678776826	0.0	0.5088167254271397	-0.7172540854102599	0.0	0.5460774980804007	-0.7606762524161276	0.0	0.5489414707817849	-0.7535446916198971	0.0	0.4883228165285492	-0.7370941698713398	0.0	0.46326653018002745	-0.29935240020624587	0.0	0.5400092056781384	-0.2246041685600755	0.0	0.5367270919064913	-0.2680989181409557	0.0	0.4624355712608485	-0.2968666104130594	0.0	0.5551419992159848	-0.28814156591447626	0.0	0.6339635557940627	-0.23909443264269903	0.0	0.4577223836626199	-0.29820994590620786	0.0	0.4646575805815939	-0.2784327678735615	0.0	0.48722690813890707	-0.23915970881360726	0.0
